<?xml version="1.0" encoding="utf-8"?>
<!-- Generator: Adobe Illustrator 16.0.0, SVG Export Plug-In . SVG Version: 6.00 Build 0)  -->
<!DOCTYPE svg PUBLIC "-//W3C//DTD SVG 1.1//EN" "http://www.w3.org/Graphics/SVG/1.1/DTD/svg11.dtd">
<svg version="1.1" id="Layer_1" xmlns="http://www.w3.org/2000/svg" xmlns:xlink="http://www.w3.org/1999/xlink" x="0px" y="0px"
	 width="64px" height="64px" viewBox="0 0 64 64" enable-background="new 0 0 64 64" xml:space="preserve">
<path fill="#77B3D4" d="M64,32c0,17.673-14.327,32-32,32S0,49.673,0,32S14.327,0,32,0S64,14.327,64,32"/>
<g opacity="0.2">
	<g>
		<defs>
			<rect id="SVGID_1_" x="12" y="25" width="40" height="29"/>
		</defs>
		<clipPath id="SVGID_2_">
			<use xlink:href="#SVGID_1_"  overflow="visible"/>
		</clipPath>
		<path clip-path="url(#SVGID_2_)" fill="#231F20" d="M12,25v25c0,2.209,1.791,4,4,4h32c2.209,0,4-1.791,4-4V25H12z"/>
	</g>
</g>
<path fill="#FFFFFF" d="M12,23v25c0,2.209,1.791,4,4,4h32c2.209,0,4-1.791,4-4V23H12z"/>
<g opacity="0.2">
	<g>
		<defs>
			<rect id="SVGID_3_" x="12" y="14" width="40" height="11"/>
		</defs>
		<clipPath id="SVGID_4_">
			<use xlink:href="#SVGID_3_"  overflow="visible"/>
		</clipPath>
		<path clip-path="url(#SVGID_4_)" fill="#231F20" d="M48,14H16c-2.209,0-4,1.791-4,4v7h40v-7C52,15.791,50.209,14,48,14"/>
	</g>
</g>
<path fill="#C75C5C" d="M48,12H16c-2.209,0-4,1.791-4,4v7h40v-7C52,13.791,50.209,12,48,12"/>
<path fill="#4F5D73" d="M32,48c-1.104,0-2-0.896-2-2c0-5.515,1.757-9.455,3.491-12H27c-1.104,0-2-0.896-2-2c0-1.104,0.896-2,2-2h11
	c0.871,0,1.642,0.563,1.906,1.394c0.264,0.83-0.039,1.735-0.75,2.238C38.957,33.778,34,37.493,34,46C34,47.104,33.104,48,32,48"/>
<g opacity="0.2">
	<g>
		<defs>
			<rect id="SVGID_5_" x="18" y="10" width="4" height="11"/>
		</defs>
		<clipPath id="SVGID_6_">
			<use xlink:href="#SVGID_5_"  overflow="visible"/>
		</clipPath>
		<path clip-path="url(#SVGID_6_)" fill="#231F20" d="M20,21c-1.105,0-2-0.895-2-2v-7c0-1.105,0.895-2,2-2s2,0.895,2,2v7
			C22,20.105,21.105,21,20,21"/>
	</g>
</g>
<g opacity="0.2">
	<g>
		<defs>
			<rect id="SVGID_7_" x="43" y="10" width="4" height="11"/>
		</defs>
		<clipPath id="SVGID_8_">
			<use xlink:href="#SVGID_7_"  overflow="visible"/>
		</clipPath>
		<path clip-path="url(#SVGID_8_)" fill="#231F20" d="M45,21c-1.105,0-2-0.895-2-2v-7c0-1.105,0.895-2,2-2s2,0.895,2,2v7
			C47,20.105,46.105,21,45,21"/>
	</g>
</g>
<path fill="#E0E0D1" d="M20,19c-1.105,0-2-0.895-2-2v-7c0-1.105,0.895-2,2-2s2,0.895,2,2v7C22,18.105,21.105,19,20,19"/>
<path fill="#E0E0D1" d="M45,19c-1.105,0-2-0.895-2-2v-7c0-1.105,0.895-2,2-2s2,0.895,2,2v7C47,18.105,46.105,19,45,19"/>
</svg>
