<?xml version="1.0" encoding="utf-8"?>
<!-- Generator: Adobe Illustrator 16.0.0, SVG Export Plug-In . SVG Version: 6.00 Build 0)  -->
<!DOCTYPE svg PUBLIC "-//W3C//DTD SVG 1.1//EN" "http://www.w3.org/Graphics/SVG/1.1/DTD/svg11.dtd">
<svg version="1.1" id="Layer_1" xmlns="http://www.w3.org/2000/svg" xmlns:xlink="http://www.w3.org/1999/xlink" x="0px" y="0px"
	 width="220px" height="220px" viewBox="0 0 220 220" enable-background="new 0 0 220 220" xml:space="preserve">
<path fill="#FFFFFF" d="M0.17,110c0-60.656,49.5-109.83,110.158-109.83S219.83,49.344,219.83,110
	c0,60.657-49.172,109.83-109.83,109.83S0.17,170.657,0.17,110z"/>
<path opacity="0.2" enable-background="new    " d="M6.07,116.398C6.07,55.744,55.57,6.57,116.229,6.57
	c30.271,0,57.6,12.247,77.383,32.055C173.557,15.09,143.736,0.17,110.328,0.17C49.67,0.17,0.17,49.344,0.17,110
	c0,30.313,12.281,57.758,32.139,77.631C15.95,168.453,6.07,143.581,6.07,116.398z"/>
<g>
	<g opacity="0.2">
		<path fill="#231F20" d="M189.258,95.744H144.4V69.74c-0.002-6.194-5.023-11.214-11.217-11.214H43.465
			c-6.193,0-11.215,5.02-11.215,11.214v52.335c0,6.194,5.021,11.217,11.215,11.217h6.961h0.773v15.521l20.496-15.521h16.629v26.003
			c0,6.193,5.022,11.216,11.215,11.216h5.028l20.496,15.519v-15.519h64.196c6.191,0,11.216-5.021,11.216-11.216v-52.337
			C200.473,100.764,195.45,95.744,189.258,95.744z"/>
	</g>
	<g>
		<path fill="#FFFFFF" d="M189.258,91.744H144.4V65.74c-0.002-6.194-5.023-11.214-11.217-11.214H43.465
			c-6.193,0-11.215,5.02-11.215,11.214v52.335c0,6.194,5.021,11.217,11.215,11.217h6.961h0.773v15.521l20.496-15.521h16.629v26.003
			c0,6.193,5.022,11.216,11.215,11.216h5.028l20.496,15.519v-15.519h64.196c6.191,0,11.216-5.021,11.216-11.216v-52.337
			C200.473,96.764,195.45,91.744,189.258,91.744z"/>
	</g>
</g>
<g id="Layer_3">
	<path fill="#C0392B" d="M133.184,54.526H43.465c-6.193,0-11.215,5.02-11.215,11.214v52.335c0,6.194,5.021,11.217,11.215,11.217
		h6.961h0.773v15.521l20.496-15.521h61.491c6.191,0,11.215-5.022,11.215-11.217V65.74C144.398,59.546,139.377,54.526,133.184,54.526
		z"/>
</g>
<g id="Layer_2">
	<path fill="#E74C3C" d="M189.258,91.744H99.539c-6.193,0-11.215,5.02-11.215,11.214v52.337c0,6.193,5.022,11.216,11.215,11.216
		h5.028l20.496,15.519v-15.519h64.196c6.191,0,11.216-5.021,11.216-11.216v-52.337C200.473,96.764,195.45,91.744,189.258,91.744z"/>
</g>
<g>
	<path fill="#FFFFFF" d="M105.961,137l7.354-16.598h-9.272v-4.789h15.454v3.412L111.952,137H105.961z"/>
	<path fill="#FFFFFF" d="M150.624,137v-9.023c0-1.123-0.153-1.965-0.461-2.525s-0.794-0.844-1.458-0.844
		c-0.879,0-1.523,0.377-1.934,1.129c-0.412,0.752-0.615,1.929-0.615,3.529V137h-5.742v-9.023c0-1.123-0.146-1.965-0.439-2.525
		s-0.767-0.844-1.42-0.844c-0.898,0-1.554,0.4-1.964,1.201c-0.409,0.801-0.614,2.109-0.614,3.926V137h-5.729v-16.598h4.32
		l0.719,2.052h0.337c0.438-0.763,1.077-1.343,1.912-1.743s1.784-0.602,2.849-0.602c2.393,0,4.072,0.729,5.039,2.184h0.454
		c0.47-0.684,1.121-1.218,1.956-1.604c0.835-0.387,1.755-0.58,2.762-0.58c1.963,0,3.412,0.504,4.35,1.51
		c0.938,1.006,1.406,2.533,1.406,4.585V137H150.624z"/>
	<path fill="#FFFFFF" d="M160.131,116.271c0-0.858,0.239-1.498,0.719-1.918c0.479-0.42,1.25-0.631,2.313-0.631
		s1.841,0.215,2.329,0.646c0.488,0.43,0.732,1.063,0.732,1.903c0,1.681-1.021,2.521-3.063,2.521
		C161.143,118.792,160.131,117.952,160.131,116.271z M166.005,137h-5.728v-16.598h5.728V137z"/>
	<path fill="#FFFFFF" d="M180.479,137v-9.053c0-1.104-0.158-1.937-0.477-2.497c-0.318-0.562-0.828-0.843-1.531-0.843
		c-0.967,0-1.664,0.386-2.095,1.156c-0.431,0.771-0.646,2.096-0.646,3.971V137h-5.728v-16.598h4.321l0.718,2.052h0.337
		c0.488-0.781,1.165-1.367,2.029-1.759c0.863-0.391,1.857-0.586,2.98-0.586c1.836,0,3.264,0.533,4.284,1.598s1.53,2.563,1.53,4.497
		V137H180.479z"/>
</g>
</svg>
