<?xml version="1.0" encoding="utf-8"?>
<!-- Generator: Adobe Illustrator 16.0.0, SVG Export Plug-In . SVG Version: 6.00 Build 0)  -->
<!DOCTYPE svg PUBLIC "-//W3C//DTD SVG 1.1//EN" "http://www.w3.org/Graphics/SVG/1.1/DTD/svg11.dtd">
<svg version="1.1" id="Layer_1" xmlns="http://www.w3.org/2000/svg" xmlns:xlink="http://www.w3.org/1999/xlink" x="0px" y="0px"
	 width="220px" height="220px" viewBox="0 0 220 220" enable-background="new 0 0 220 220" xml:space="preserve">
<path fill="#FFFFFF" d="M0.17,110c0-60.656,49.5-109.83,110.158-109.83S219.83,49.344,219.83,110
	c0,60.657-49.172,109.83-109.83,109.83S0.17,170.657,0.17,110z"/>
<path opacity="0.2" enable-background="new    " d="M66.267,49.858c16.607-0.065,33.955,10.032,41.178,30.717
	c5.5-20.695,22.768-30.8,39.971-30.868c20.6-0.082,41.107,14.215,41.232,41.93c0.232,50.854-75.732,84.691-79.729,86.472
	c-4.017-1.783-80.305-35.733-80.534-86.594C28.258,64.045,46.755,49.934,66.267,49.858z"/>
<g>
	<g display="none">
		<g display="inline">
			<path id="SVGID_2_" fill="#E74C3C" d="M190.255,81.738l-0.053,14.752c0.235,51.889-77.281,86.419-81.361,88.238l0.055-14.752
				C112.975,168.16,190.491,133.629,190.255,81.738z"/>
		</g>
		<g display="inline">
			<g>
				<defs>
					<path id="SVGID_1_" d="M190.255,81.738l-0.053,14.752c0.235,51.889-77.281,86.419-81.361,88.238l0.055-14.752
						C112.975,168.16,190.491,133.629,190.255,81.738z"/>
				</defs>
				<use xlink:href="#SVGID_1_"  overflow="visible" fill="#E74C3C"/>
				<clipPath id="SVGID_3_">
					<use xlink:href="#SVGID_1_"  overflow="visible"/>
				</clipPath>
				<path clip-path="url(#SVGID_3_)" fill="#E74C3C" d="M190.255,81.738l-0.053,14.752c0.024,5.942-0.968,11.66-2.752,17.126
					l0.054-14.752C189.29,93.4,190.281,87.682,190.255,81.738L190.255,81.738z"/>
			</g>
		</g>
		<g display="inline">
			<g>
				<defs>
					<path id="SVGID_5_" d="M190.255,81.738l-0.053,14.752c0.235,51.889-77.281,86.419-81.361,88.238l0.055-14.752
						C112.975,168.16,190.491,133.629,190.255,81.738z"/>
				</defs>
				<use xlink:href="#SVGID_5_"  overflow="visible" fill="#E74C3C"/>
				<clipPath id="SVGID_6_">
					<use xlink:href="#SVGID_5_"  overflow="visible"/>
				</clipPath>
				<path clip-path="url(#SVGID_6_)" fill="#E74C3C" d="M187.504,98.864l-0.054,14.752c-1.896,5.795-4.683,11.309-8.089,16.513
					l0.057-14.752C182.822,110.175,185.609,104.661,187.504,98.864L187.504,98.864z"/>
			</g>
		</g>
		<g display="inline">
			<g>
				<defs>
					<path id="SVGID_7_" d="M190.255,81.738l-0.053,14.752c0.235,51.889-77.281,86.419-81.361,88.238l0.055-14.752
						C112.975,168.16,190.491,133.629,190.255,81.738z"/>
				</defs>
				<use xlink:href="#SVGID_7_"  overflow="visible" fill="#E74C3C"/>
				<clipPath id="SVGID_8_">
					<use xlink:href="#SVGID_7_"  overflow="visible"/>
				</clipPath>
				<path clip-path="url(#SVGID_8_)" fill="#E74C3C" d="M179.418,115.377l-0.057,14.752c-5.223,7.979-11.901,15.227-19.066,21.65
					l0.055-14.75C167.514,130.605,174.193,123.357,179.418,115.377L179.418,115.377z"/>
			</g>
		</g>
		<g display="inline">
			<g>
				<defs>
					<path id="SVGID_9_" d="M190.255,81.738l-0.053,14.752c0.235,51.889-77.281,86.419-81.361,88.238l0.055-14.752
						C112.975,168.16,190.491,133.629,190.255,81.738z"/>
				</defs>
				<use xlink:href="#SVGID_9_"  overflow="visible" fill="#E74C3C"/>
				<clipPath id="SVGID_10_">
					<use xlink:href="#SVGID_9_"  overflow="visible"/>
				</clipPath>
				<path clip-path="url(#SVGID_10_)" fill="#E74C3C" d="M160.35,137.029l-0.055,14.751c-22.225,19.928-49.098,31.896-51.454,32.948
					l0.055-14.752C111.25,168.928,138.124,156.957,160.35,137.029L160.35,137.029z"/>
			</g>
		</g>
	</g>
	<g display="none">
		<g display="inline">
			<path id="SVGID_4_" fill="#E74C3C" d="M108.896,169.977l-0.055,14.752c-4.096-1.824-81.94-36.465-82.177-88.367l0.054-14.749
				C26.955,133.514,104.799,168.154,108.896,169.977z"/>
		</g>
		<g display="inline">
			<g>
				<defs>
					<path id="SVGID_11_" d="M108.896,169.977l-0.055,14.752c-4.096-1.824-81.94-36.465-82.177-88.367l0.054-14.749
						C26.955,133.514,104.799,168.154,108.896,169.977z"/>
				</defs>
				<use xlink:href="#SVGID_11_"  overflow="visible" fill="#E74C3C"/>
				<clipPath id="SVGID_12_">
					<use xlink:href="#SVGID_11_"  overflow="visible"/>
				</clipPath>
				<path clip-path="url(#SVGID_12_)" fill="#E74C3C" d="M108.896,169.977l-0.055,14.752c-4.096-1.824-81.94-36.465-82.177-88.367
					l0.054-14.749C26.955,133.514,104.799,168.154,108.896,169.977L108.896,169.977z"/>
			</g>
		</g>
	</g>
	<path fill="#E74C3C" d="M66.267,40.524c16.607-0.065,33.955,10.032,41.178,30.717c5.5-20.695,22.768-30.8,39.971-30.868
		c20.6-0.082,41.107,14.215,41.232,41.93c0.232,50.854-75.732,84.691-79.729,86.473c-4.017-1.783-80.305-35.733-80.534-86.594
		C28.258,54.711,46.755,40.6,66.267,40.524z"/>
</g>
<circle fill="#E74C3C" cx="146.669" cy="117" r="45.582"/>
<path opacity="0.2" enable-background="new    " d="M204.286,155.482c-0.774,0.004-1.55,0.121-2.294,0.351l-9.223-8.823
	c5.205-7.963,8.211-17.382,8.166-27.475c-0.117-28.25-24.067-51.138-53.386-51.021c-29.302,0.119-53.021,23.194-52.895,51.446
	c0.132,28.243,24.061,51.142,53.359,51.024c11.777-0.049,22.641-3.808,33.816-10.104l8.547,8.168
	c-3.469,2.609-2.92,5.701-0.723,7.804l4.226,4.037c6.054-7.156,11.211-15.095,15.292-23.646
	C207.771,156.061,206.031,155.477,204.286,155.482z M147.967,159.555c-22.765,0.09-41.37-17.688-41.471-39.642
	c-0.099-21.953,18.333-39.88,41.107-39.979c22.781-0.081,41.387,17.697,41.486,39.649
	C189.189,141.534,170.748,159.465,147.967,159.555z"/>
<path fill="#DBA92C" d="M208.025,152.551c-1.455-1.391-3.344-2.066-5.233-2.061c-0.774,0.005-1.55,0.121-2.294,0.351l-9.223-8.823
	c5.205-7.963,8.211-17.382,8.166-27.475c-0.117-28.25-24.067-51.138-53.385-51.021c-29.303,0.119-53.03,23.194-52.903,51.446
	c0.132,28.243,24.069,51.142,53.368,51.024c11.776-0.049,22.641-3.807,31.426-10.104l8.547,8.168
	c-1.078,2.608-0.529,5.7,1.668,7.803l7.331,7.004c5.913-7.338,10.896-15.452,14.78-24.164L208.025,152.551z M146.473,154.563
	c-22.765,0.09-41.376-17.688-41.479-39.642c-0.099-21.953,18.341-39.88,41.115-39.979c22.781-0.081,41.386,17.697,41.486,39.649
	C187.695,136.542,169.254,154.473,146.473,154.563z"/>
<path opacity="0.2" enable-background="new    " d="M6.07,116.398C6.07,55.744,55.57,6.57,116.229,6.57
	c30.271,0,57.599,12.247,77.383,32.055C173.557,15.09,143.736,0.17,110.328,0.17C49.67,0.17,0.17,49.344,0.17,110
	c0,30.313,12.281,57.758,32.139,77.631C15.95,168.453,6.07,143.581,6.07,116.398z"/>
</svg>
