<?xml version="1.0" encoding="utf-8"?>
<!-- Generator: Adobe Illustrator 16.0.0, SVG Export Plug-In . SVG Version: 6.00 Build 0)  -->
<!DOCTYPE svg PUBLIC "-//W3C//DTD SVG 1.1//EN" "http://www.w3.org/Graphics/SVG/1.1/DTD/svg11.dtd">
<svg version="1.1" id="Layer_1" xmlns="http://www.w3.org/2000/svg" xmlns:xlink="http://www.w3.org/1999/xlink" x="0px" y="0px"
	 width="64px" height="64px" viewBox="0 0 64 64" enable-background="new 0 0 64 64" xml:space="preserve">
<path fill="#C75C5C" d="M64,32c0,17.673-14.327,32-32,32S0,49.673,0,32S14.327,0,32,0S64,14.327,64,32"/>
<g opacity="0.2">
	<path fill="#231F20" d="M52.872,28.063c-0.31-0.951-1.133-1.645-2.121-1.79l-11.327-1.645l-5.066-10.263
		c-0.444-0.899-1.356-1.466-2.358-1.466c-1.001,0-1.913,0.567-2.357,1.466l-5.065,10.263L13.25,26.273
		c-0.991,0.145-1.813,0.839-2.121,1.79c-0.31,0.951-0.052,1.995,0.665,2.694l8.197,7.989l-1.934,11.283
		c-0.168,0.985,0.236,1.981,1.046,2.569c0.455,0.334,0.996,0.502,1.543,0.502c0.418,0,0.838-0.099,1.222-0.302l10.131-5.327
		l10.132,5.327c0.384,0.203,0.805,0.302,1.223,0.302c0.544,0,1.088-0.168,1.545-0.502c0.81-0.588,1.214-1.584,1.046-2.569
		L44.01,38.746l8.197-7.989C52.922,30.06,53.18,29.014,52.872,28.063"/>
</g>
<path fill="#F5CF87" d="M52.872,26.063c-0.31-0.951-1.133-1.645-2.121-1.79l-11.327-1.645l-5.066-10.263
	c-0.444-0.899-1.356-1.466-2.358-1.466c-1.001,0-1.913,0.567-2.357,1.466l-5.065,10.263L13.25,24.273
	c-0.991,0.145-1.813,0.839-2.121,1.79c-0.31,0.951-0.052,1.995,0.665,2.694l8.197,7.989l-1.934,11.283
	c-0.168,0.985,0.236,1.981,1.046,2.569c0.455,0.334,0.996,0.502,1.543,0.502c0.418,0,0.838-0.099,1.222-0.302l10.131-5.327
	l10.132,5.327c0.384,0.203,0.805,0.302,1.223,0.302c0.544,0,1.088-0.168,1.545-0.502c0.81-0.588,1.214-1.584,1.046-2.569
	L44.01,36.746l8.197-7.989C52.922,28.06,53.18,27.014,52.872,26.063"/>
</svg>
