<?xml version="1.0" encoding="utf-8"?>
<!-- Generator: Adobe Illustrator 16.0.0, SVG Export Plug-In . SVG Version: 6.00 Build 0)  -->
<!DOCTYPE svg PUBLIC "-//W3C//DTD SVG 1.1//EN" "http://www.w3.org/Graphics/SVG/1.1/DTD/svg11.dtd">
<svg version="1.1" id="Layer_1" xmlns="http://www.w3.org/2000/svg" xmlns:xlink="http://www.w3.org/1999/xlink" x="0px" y="0px"
	 width="10.864px" height="16px" viewBox="10.959 7.968 10.864 16" enable-background="new 10.959 7.968 10.864 16"
	 xml:space="preserve">
<path fill="#FFFFFF" d="M21.823,13.399c0-2.993-2.438-5.431-5.431-5.431c-2.995,0-5.433,2.438-5.433,5.431
	c0,2.604,1.84,4.786,4.29,5.311v1.264h-1.208c-0.582,0-1.054,0.477-1.054,1.057c0,0.582,0.473,1.057,1.054,1.057h1.208v0.827
	c0,0.582,0.476,1.055,1.058,1.055c0.581,0,1.057-0.472,1.057-1.055v-0.827h1.27c0.581,0,1.054-0.475,1.054-1.057
	c0-0.58-0.473-1.057-1.054-1.057h-1.27v-1.229C19.881,18.287,21.823,16.063,21.823,13.399z M13.067,13.399
	c0-1.833,1.491-3.324,3.324-3.324c1.833,0,3.324,1.491,3.324,3.324s-1.491,3.324-3.324,3.324S13.067,15.232,13.067,13.399z"/>
</svg>
