<?xml version="1.0" encoding="utf-8"?>
<!-- Generator: Adobe Illustrator 16.0.0, SVG Export Plug-In . SVG Version: 6.00 Build 0)  -->
<!DOCTYPE svg PUBLIC "-//W3C//DTD SVG 1.1//EN" "http://www.w3.org/Graphics/SVG/1.1/DTD/svg11.dtd">
<svg version="1.1" id="Layer_1" xmlns="http://www.w3.org/2000/svg" xmlns:xlink="http://www.w3.org/1999/xlink" x="0px" y="0px"
	 width="52.492px" height="35.312px" viewBox="0 0 52.492 35.312" enable-background="new 0 0 52.492 35.312" xml:space="preserve">
<g>
	<path fill-rule="evenodd" clip-rule="evenodd" fill="#B02524" d="M25.455,26.579c0.533,3.965,0.43,7.248-1.049,8.037
		c-3.175,1.696-14.4-4.954-20.465-12.665C-5.502,9.947,3.859-1.724,12.795,1.173C21.15,3.882,24.367,18.51,25.455,26.579z"/>
	<path fill-rule="evenodd" clip-rule="evenodd" fill="#8E2521" d="M25.455,26.579c0.533,3.965,0.43,7.248-1.049,8.037
		c-0.448,0.24-1.057,0.313-1.789,0.24c-0.018-0.003-0.035-0.005-0.053-0.006c-5.675-0.582-3.813-20.262-2.637-24.047
		c0.203-0.655,0.375-1.292,0.594-1.889C23.375,14.493,24.801,21.724,25.455,26.579z"/>
	<path fill-rule="evenodd" clip-rule="evenodd" fill="#E22227" d="M29.584,31.296c-3.064,2.571-5.895,4.24-7.352,3.412
		c-3.131-1.775-3.514-14.817-0.242-24.065c5.094-14.399,19.961-12.731,22.291-3.63C46.461,15.522,35.822,26.063,29.584,31.296z"/>
	<circle opacity="0.5" fill-rule="evenodd" clip-rule="evenodd" fill="#FFFFFF" cx="33.313" cy="19.398" r="9.471"/>
	<path fill-rule="evenodd" clip-rule="evenodd" fill="#E9992C" d="M33.326,9.059c2.74,0,5.346,1.079,7.283,3.017
		c1.938,1.938,3.018,4.544,3.018,7.284s-1.08,5.347-3.018,7.283c-1.938,1.938-4.543,3.018-7.283,3.018
		c-2.742,0-5.347-1.08-7.284-3.018c-1.938-1.937-3.017-4.543-3.017-7.283s1.078-5.346,3.017-7.284
		C27.979,10.138,30.584,9.059,33.326,9.059L33.326,9.059z M39.439,13.246c-1.627-1.627-3.813-2.532-6.113-2.532
		c-2.302,0-4.487,0.905-6.115,2.532c-1.626,1.626-2.53,3.813-2.53,6.113c0,2.3,0.904,4.487,2.53,6.113
		c1.628,1.627,3.813,2.532,6.115,2.532c2.301,0,4.486-0.905,6.113-2.532c1.627-1.626,2.531-3.813,2.531-6.113
		C41.971,17.059,41.066,14.873,39.439,13.246z"/>
	<path opacity="0.5" fill-rule="evenodd" clip-rule="evenodd" fill="#ECECEC" d="M33.436,12.208c3.9,0,7.061,3.161,7.061,7.061
		c0,1.649-0.564,3.166-1.512,4.368c0.469-0.982,0.732-2.082,0.732-3.243c0-4.157-3.369-7.525-7.527-7.525
		c-0.891,0-1.746,0.155-2.54,0.44C30.743,12.612,32.043,12.208,33.436,12.208z"/>
	<path fill-rule="evenodd" clip-rule="evenodd" fill="#E9992C" d="M43.347,30.849c-1.323-1.33-2.645-2.66-3.967-3.991l-0.542-0.546
		l0.504-0.579c0.28-0.323,0.534-0.669,0.787-1.014c0.318-0.435,0.637-0.859,0.994-1.265l0.443-0.5l0.582,0.327l10.344,5.829
		l-0.112,0.584c-0.218,1.146-0.649,2.221-1.353,3.156c-0.715,0.954-1.645,1.674-2.711,2.198l-0.534,0.263l-0.418-0.422
		C46.027,33.541,44.687,32.195,43.347,30.849L43.347,30.849z"/>
</g>
</svg>
