<?xml version="1.0" encoding="utf-8"?>
<!-- Generator: Adobe Illustrator 16.0.0, SVG Export Plug-In . SVG Version: 6.00 Build 0)  -->
<!DOCTYPE svg PUBLIC "-//W3C//DTD SVG 1.1//EN" "http://www.w3.org/Graphics/SVG/1.1/DTD/svg11.dtd">
<svg version="1.1" id="Layer_1" xmlns="http://www.w3.org/2000/svg" xmlns:xlink="http://www.w3.org/1999/xlink" x="0px" y="0px"
	 width="70.318px" height="353.244px" viewBox="0 0 70.318 353.244" enable-background="new 0 0 70.318 353.244"
	 xml:space="preserve">
<g id="Layer_3">
</g>
<g id="shadow_2">
	<polyline opacity="0.2" enable-background="new    " points="19.439,4.035 7.643,5.074 0,21.979 24.25,335.076 57.519,353.244 
		64.697,328.521 19.439,4.035 	"/>
</g>
<g id="clipboard">
</g>
<g id="pen_1_">
	<polygon fill="#333333" points="22.23,3.89 7.643,5.074 17.629,109.659 13.502,115.536 21.335,112.972 13.036,11.741 
		22.728,10.967 	"/>
	<polygon fill="#1A1A1A" points="38.62,302.546 41.216,326.758 59.712,351.449 70.318,323.145 68.362,301.188 	"/>
	<polygon fill="#333333" points="24.25,125.068 39.104,313.418 40.45,314.166 68.673,310.75 69.596,309.589 54.236,122.188 	"/>
	<polygon fill="#1A1A1A" points="13.489,2.836 44.774,0 55.503,125.817 23.732,127.803 	"/>
</g>
</svg>
