<?xml version="1.0" encoding="utf-8"?>
<!-- Generator: Adobe Illustrator 16.0.0, SVG Export Plug-In . SVG Version: 6.00 Build 0)  -->
<!DOCTYPE svg PUBLIC "-//W3C//DTD SVG 1.1//EN" "http://www.w3.org/Graphics/SVG/1.1/DTD/svg11.dtd">
<svg version="1.1" id="Capa_1" xmlns="http://www.w3.org/2000/svg" xmlns:xlink="http://www.w3.org/1999/xlink" x="0px" y="0px"
	 width="22.042px" height="24px" viewBox="96.979 60.419 22.042 24" enable-background="new 96.979 60.419 22.042 24"
	 xml:space="preserve">
<path opacity="0.2" d="M117.542,67.867c-0.985-1.688-2.322-3.025-4.011-4.011c-1.688-0.985-3.532-1.478-5.531-1.478
	c-2,0-3.844,0.492-5.532,1.478c-1.688,0.986-3.025,2.322-4.011,4.011s-1.478,3.533-1.478,5.532c0,1.999,0.493,3.843,1.478,5.532
	c0.985,1.688,2.323,3.025,4.011,4.012C104.156,83.927,106,84.42,108,84.42s3.844-0.493,5.532-1.478
	c1.688-0.986,3.025-2.323,4.011-4.012c0.986-1.688,1.479-3.533,1.479-5.532C119.021,71.399,118.528,69.555,117.542,67.867z
	 M109.836,80.286c0,0.135-0.043,0.245-0.129,0.331c-0.085,0.085-0.195,0.129-0.33,0.129h-2.755c-0.134,0-0.244-0.044-0.33-0.129
	c-0.086-0.086-0.129-0.196-0.129-0.331v-2.755c0-0.133,0.043-0.243,0.129-0.33c0.086-0.086,0.196-0.128,0.33-0.128h2.755
	c0.135,0,0.245,0.042,0.33,0.128c0.086,0.087,0.129,0.197,0.129,0.33V80.286z M113.331,71.806c-0.12,0.354-0.255,0.644-0.402,0.868
	c-0.148,0.224-0.362,0.455-0.639,0.689c-0.277,0.233-0.497,0.402-0.659,0.503c-0.163,0.1-0.398,0.236-0.703,0.409
	c-0.316,0.182-0.577,0.418-0.782,0.709c-0.206,0.291-0.31,0.529-0.31,0.711c0,0.134-0.043,0.244-0.129,0.329
	c-0.085,0.087-0.195,0.129-0.329,0.129h-2.756c-0.134,0-0.244-0.042-0.33-0.129c-0.086-0.085-0.129-0.195-0.129-0.329v-0.518
	c0-0.641,0.251-1.241,0.753-1.801c0.503-0.56,1.055-0.974,1.658-1.241c0.459-0.21,0.784-0.426,0.975-0.646
	c0.192-0.22,0.287-0.512,0.287-0.875c0-0.316-0.179-0.598-0.537-0.847c-0.359-0.249-0.768-0.373-1.227-0.373
	c-0.498,0-0.909,0.115-1.234,0.344c-0.315,0.229-0.727,0.67-1.234,1.32c-0.086,0.115-0.206,0.172-0.359,0.172
	c-0.115,0-0.206-0.029-0.272-0.086l-1.895-1.435c-0.22-0.172-0.258-0.373-0.115-0.602c1.225-2.038,3-3.057,5.324-3.057
	c0.833,0,1.646,0.196,2.44,0.588c0.794,0.392,1.457,0.948,1.988,1.665c0.529,0.717,0.795,1.497,0.795,2.339
	C113.51,71.065,113.449,71.452,113.331,71.806z"/>
<path fill="#FFFFFF" d="M117.542,65.909c-0.985-1.688-2.322-3.026-4.011-4.011c-1.688-0.985-3.532-1.479-5.531-1.479
	c-2,0-3.844,0.493-5.532,1.479c-1.688,0.985-3.025,2.322-4.011,4.011s-1.478,3.532-1.478,5.532c0,1.999,0.493,3.844,1.478,5.532
	c0.985,1.688,2.323,3.025,4.011,4.011C104.156,81.968,106,82.46,108,82.46s3.844-0.492,5.532-1.477
	c1.688-0.985,3.025-2.322,4.011-4.011c0.986-1.688,1.479-3.534,1.479-5.532C119.021,69.44,118.528,67.597,117.542,65.909z
	 M109.836,78.328c0,0.134-0.043,0.244-0.129,0.329c-0.085,0.087-0.195,0.131-0.33,0.131h-2.755c-0.134,0-0.244-0.044-0.33-0.131
	c-0.086-0.085-0.129-0.195-0.129-0.329v-2.755c0-0.134,0.043-0.243,0.129-0.33c0.086-0.087,0.196-0.129,0.33-0.129h2.755
	c0.135,0,0.245,0.042,0.33,0.129c0.086,0.087,0.129,0.196,0.129,0.33V78.328z M113.331,69.847c-0.12,0.354-0.255,0.644-0.402,0.868
	c-0.148,0.225-0.362,0.455-0.639,0.689c-0.277,0.234-0.497,0.402-0.659,0.502c-0.163,0.101-0.398,0.237-0.703,0.41
	c-0.316,0.181-0.577,0.417-0.782,0.709c-0.206,0.291-0.31,0.529-0.31,0.71c0,0.135-0.043,0.243-0.129,0.33
	c-0.085,0.087-0.195,0.129-0.329,0.129h-2.756c-0.134,0-0.244-0.042-0.33-0.129c-0.086-0.087-0.129-0.195-0.129-0.33v-0.517
	c0-0.641,0.251-1.241,0.753-1.801c0.503-0.56,1.055-0.973,1.658-1.241c0.459-0.21,0.784-0.426,0.975-0.646
	c0.192-0.22,0.287-0.512,0.287-0.875c0-0.315-0.179-0.597-0.537-0.846c-0.359-0.249-0.768-0.374-1.227-0.374
	c-0.498,0-0.909,0.115-1.234,0.345c-0.315,0.229-0.727,0.669-1.234,1.32c-0.086,0.115-0.206,0.172-0.359,0.172
	c-0.115,0-0.206-0.029-0.272-0.085l-1.895-1.435c-0.22-0.172-0.258-0.373-0.115-0.603c1.225-2.038,3-3.057,5.324-3.057
	c0.833,0,1.646,0.196,2.44,0.589c0.794,0.392,1.457,0.947,1.988,1.665c0.529,0.717,0.795,1.497,0.795,2.339
	C113.51,69.106,113.449,69.493,113.331,69.847z"/>
</svg>
