<?xml version="1.0" encoding="utf-8"?>
<!-- Generator: Adobe Illustrator 16.0.0, SVG Export Plug-In . SVG Version: 6.00 Build 0)  -->
<!DOCTYPE svg PUBLIC "-//W3C//DTD SVG 1.1//EN" "http://www.w3.org/Graphics/SVG/1.1/DTD/svg11.dtd">
<svg version="1.1" id="Layer_1" xmlns="http://www.w3.org/2000/svg" xmlns:xlink="http://www.w3.org/1999/xlink" x="0px" y="0px"
	 width="220.907px" height="152.433px" viewBox="36.873 61.327 220.907 152.433"
	 enable-background="new 36.873 61.327 220.907 152.433" xml:space="preserve">
<path opacity="0.2" d="M255.373,144.514c0.529-2.248,1.055-5.505,1.479-9.543c0.672-5.951,0.918-11.951,0.924-17.952
	c0.007-1.176,0.004-2.372-0.01-3.589c-0.077-6.597-0.416-13.663-0.9-19.895c-0.006-0.077-0.012-0.154-0.018-0.231
	c-0.11-1.413-0.229-2.779-0.354-4.088c-0.03-0.319-0.061-0.637-0.093-0.956c-0.378-3.795-0.806-7.03-1.248-9.312
	c-0.026-0.14-0.056-0.279-0.084-0.419c-0.013-0.065-0.026-0.131-0.04-0.194c-0.039-0.187-0.08-0.374-0.124-0.559
	c-0.053-0.226-0.105-0.436-0.158-0.632c-0.01-0.037-0.021-0.073-0.031-0.11c-0.075-0.272-0.151-0.518-0.228-0.726
	c-0.006-0.017-0.01-0.034-0.016-0.051c0,0.001,0,0.002,0,0.003c-0.001-0.002-0.001-0.004-0.002-0.005
	c0,0.016-0.003,0.033-0.003,0.049c0-0.014,0.001-0.037,0.001-0.05c-0.623-2.158-3.382-6.771-13.528-6.771
	c-6.764,0-19.011,1.829-33.82,6.336c-16.742,5.096-33.472,13.356-41.841,17.76c-0.284-0.808-0.579-1.353-0.883-1.566
	c-3.465-2.438-28.809-3.324-32.388-0.352c-0.281,0.233-0.566,0.728-0.853,1.443c-0.327,0.103-0.659,0.287-0.996,0.554
	c-8.319-4.383-25.15-12.712-41.99-17.838c-14.809-4.507-27.057-6.336-33.822-6.336c-10.146,0-12.905,4.613-13.527,6.771
	c0,0,0,0.001,0,0.001v0c-0.135,0.363-0.273,0.837-0.414,1.401c-0.532,1.955-0.852,3.994-1.144,5.973
	c-0.676,4.581-1.187,9.187-1.511,13.807c0.046,0.02,0.075,0.052,0.119,0.073c-0.096,1.27-0.184,2.562-0.264,3.864
	c-0.042,0.016-0.072,0.044-0.115,0.058c-0.206,3.68-0.329,7.365-0.33,11.05c-0.006,0.342-0.012,0.685-0.016,1.024
	c-0.203,17.502,2.162,30.821,3.674,33.851c0.221,0.442,0.472,0.883,0.752,1.321c0.848,1.446,2.011,2.759,3.621,3.906
	c2.63,2.016,6.306,3.585,11.315,4.134c0.032,0.003,0.064,0.008,0.096,0.012c0.17,0.018,0.345,0.032,0.518,0.048
	c1.312,0.13,2.636,0.185,3.97,0.151c2.083-0.027,4.35-0.208,6.813-0.569c1.033-0.137,2.044-0.31,3.766-0.665
	c0.759-0.156,1.538-0.33,2.331-0.517c0.531-0.125,1.061-0.259,1.591-0.393c0.11-0.028,0.217-0.054,0.327-0.083
	c5.49-1.408,10.886-3.285,16.167-5.264c5.022-1.864,10.114-3.919,14.961-5.968c0.224-0.094,0.446-0.189,0.669-0.284
	c0.678-0.288,1.351-0.575,2.018-0.862c0.04,0,0.08,0.001,0.12,0.002c-11.458,18.907-32.359,32.76-52.988,39.734l20.969,4.165l0,0
	l13.402,2.662l8.106,24.874l0.291-0.227c7.608-6.056,14.52-13.139,20.717-20.611c4.447-5.362,8.573-11.049,12.244-17.009
	c0.347-0.559,0.691-1.118,1.03-1.682c0.108-0.181,0.215-0.362,0.322-0.543c1.785-3.005,3.442-6.085,4.94-9.248
	c2.617-5.439,4.806-11.07,6.48-16.869c0.003,0,0.02,0,0.02,0l0.303-1.125c0.117-0.424,0.238-0.847,0.35-1.272
	c0.09-0.325,0.179-0.649,0.265-0.975c0.911,0.012,1.821,0.019,2.731,0.023l0.173,0.644c0.192,0.736,0.385,1.473,0.593,2.203
	l0.135,0.502c0,0,0.014,0,0.016,0c1.155,3.973,2.542,7.862,4.145,11.661c1.955,4.697,4.233,9.26,6.828,13.646
	c2.512,4.331,5.275,8.524,8.243,12.574c0.5,0.688,1.008,1.369,1.521,2.047c0.168,0.222,0.333,0.445,0.502,0.667
	c0.809,1.058,1.632,2.105,2.469,3.142c0.067,0.084,0.136,0.167,0.204,0.25c0.74,0.913,1.491,1.817,2.25,2.715
	c0.212,0.251,0.424,0.501,0.637,0.751c0.831,0.971,1.669,1.937,2.52,2.891c5.108,5.72,10.696,11.044,16.673,15.846l8.105-24.874
	l34.372-6.827c-7.561-2.416-15.112-6.046-21.87-10.165c-12.975-7.909-23.844-17.612-31.076-29.57c0.026,0,0.053,0,0.08-0.001
	c10.212,4.392,21.843,8.98,31.714,11.804c1.972,0.539,2.056,0.573,2.732,0.73c4.101,1.038,7.771,1.653,11.04,1.917
	c0.454,0.04,0.909,0.066,1.365,0.09c0.474,0.025,0.937,0.04,1.393,0.05c0.129,0.001,0.256,0.014,0.385,0.014l0.101-0.002
	c0.96,0.011,1.881-0.011,2.765-0.063l0.113-0.002c0.054-0.005,0.108-0.01,0.163-0.016c0.607-0.041,1.192-0.099,1.765-0.167
	c1.3-0.128,2.609-0.307,3.829-0.714c3.436-0.898,6.054-2.352,8.003-4.06c0.911-0.769,1.725-1.649,2.411-2.656
	c0.441-0.624,0.818-1.259,1.136-1.895c0.286-0.574,0.59-1.52,0.892-2.794l0.002,0C255.367,144.545,255.37,144.529,255.373,144.514z"
	/>
<g id="Layer_4_1_">
	<g>
		<path fill="#FFA7A9" d="M99.081,205.606l-8.106-24.874l-34.371-6.827c21.815-7.375,43.941-22.439,54.875-43.043
			c4.67-8.801,6.965-18.05,7.574-27.962c9.582,5.491,18.771,11.675,28.331,17.221c7.274-4.268,14.404-8.775,21.578-13.207
			c1.29-0.797,5.426-3.567,6.75-4.014c1.456,27.502,17.772,46.938,40.58,60.84c6.757,4.119,14.309,7.749,21.87,10.165l-34.372,6.827
			l-8.106,24.874c-5.976-4.802-11.564-10.126-16.672-15.846c-15.24-17.063-27.429-37.255-31.627-59.975
			c-3.686,20.462-14.136,39.116-27.295,54.982c-6.197,7.473-13.109,14.556-20.717,20.611L99.081,205.606z"/>
		<path fill="#FF7066" d="M102.954,198.337c1.189-0.111,2.062-1.167,1.949-2.355c-0.112-1.189-1.166-2.063-2.353-1.951
			c-1.188,0.112-2.061,1.167-1.949,2.356C100.712,197.576,101.767,198.449,102.954,198.337z M188.999,190.231
			c1.188-0.112,2.06-1.167,1.948-2.356c-0.111-1.189-1.166-2.063-2.353-1.951c-1.188,0.112-2.061,1.167-1.949,2.356
			C186.758,189.469,187.811,190.344,188.999,190.231z M112.698,186.557c1.189-0.112,2.061-1.167,1.949-2.356
			c-0.111-1.189-1.166-2.063-2.353-1.951c-1.188,0.112-2.061,1.167-1.949,2.356C110.456,185.795,111.51,186.669,112.698,186.557z
			 M177.232,180.477c1.188-0.112,2.061-1.167,1.949-2.356c-0.112-1.188-1.166-2.063-2.354-1.951
			c-1.188,0.112-2.06,1.167-1.949,2.356C174.99,179.715,176.044,180.589,177.232,180.477z M198.743,178.45
			c1.188-0.112,2.06-1.166,1.948-2.355c-0.112-1.189-1.165-2.063-2.354-1.951c-1.188,0.111-2.059,1.167-1.949,2.356
			C196.501,177.689,197.554,178.562,198.743,178.45z M99.081,205.606l-6.058-18.591c0.322-0.865-0.056-1.698-0.738-2.265
			l-1.31-4.019l-10.824-2.15c0.882-0.371,1.211-1.206,1.217-2.108c-0.112-1.189-1.166-2.063-2.354-1.951
			c-1.187,0.111-2.06,1.167-1.949,2.356c0.139,0.704,0.017,0.302,0.481,1.169l0.026,0.022l-20.969-4.165
			c21.815-7.375,43.941-22.439,54.875-43.043c4.67-8.801,6.965-18.05,7.574-27.962c9.582,5.491,18.771,11.675,28.331,17.221
			c7.274-4.268,14.404-8.775,21.578-13.207c1.29-0.797,5.426-3.567,6.75-4.014c1.456,27.502,17.772,46.938,40.58,60.84
			c6.757,4.119,14.309,7.749,21.87,10.165l-34.372,6.827l-8.106,24.874c-5.976-4.802-11.564-10.126-16.672-15.846
			c-5.394-6.046-10.417-12.438-14.757-19.283c0.912,0.287,0.502,0.241,1.209,0.246c1.189-0.112,2.062-1.167,1.949-2.356
			s-1.166-2.063-2.354-1.951c-1.183,0.16-1.939,1.081-1.947,2.259c-7.693-11.811-13.015-25.067-15.728-38.889
			c-0.937,5.951-2.875,11.643-4.854,17.304c-0.708-0.223-0.371-0.178-1.006-0.182c-1.188,0.112-2.062,1.167-1.949,2.356
			c0.108,0.792,0.573,1.525,1.362,1.773c-4.992,12.349-12.508,23.428-20.848,33.73c-6.197,7.473-13.109,14.556-20.717,20.611
			L99.081,205.606z M171.158,115.873c1.189-0.111,2.06-1.167,1.949-2.355c-0.112-1.189-1.166-2.063-2.354-1.951
			c-1.188,0.112-2.061,1.167-1.949,2.355C168.917,115.112,169.97,115.985,171.158,115.873z M128.135,119.927
			c1.188-0.111,2.062-1.166,1.949-2.356c-0.112-1.189-1.166-2.063-2.353-1.95c-1.189,0.111-2.061,1.166-1.949,2.356
			C125.894,119.165,126.948,120.038,128.135,119.927z M161.415,127.654c1.188-0.112,2.061-1.167,1.949-2.356
			c-0.112-1.189-1.166-2.063-2.354-1.95c-1.187,0.111-2.06,1.167-1.949,2.355C159.173,126.892,160.227,127.766,161.415,127.654z
			 M139.904,129.68c1.188-0.111,2.06-1.166,1.948-2.356c-0.112-1.188-1.165-2.062-2.354-1.95c-1.187,0.111-2.059,1.166-1.947,2.356
			C137.661,128.919,138.716,129.792,139.904,129.68z M118.392,131.707c1.188-0.111,2.061-1.167,1.949-2.355
			c-0.112-1.189-1.166-2.063-2.353-1.951c-1.188,0.112-2.062,1.167-1.949,2.355C116.151,130.946,117.205,131.819,118.392,131.707z
			 M173.183,137.408c1.188-0.112,2.06-1.167,1.948-2.355c-0.111-1.19-1.166-2.063-2.353-1.951c-1.189,0.111-2.061,1.167-1.949,2.355
			C170.942,136.646,171.995,137.52,173.183,137.408z M151.672,139.434c1.188-0.112,2.06-1.166,1.949-2.356
			c-0.112-1.188-1.166-2.062-2.354-1.951c-1.188,0.112-2.061,1.167-1.949,2.357C149.43,138.673,150.484,139.546,151.672,139.434z
			 M130.161,141.461c1.188-0.111,2.059-1.167,1.948-2.355c-0.112-1.189-1.165-2.063-2.354-1.951
			c-1.188,0.112-2.06,1.167-1.949,2.356C127.918,140.699,128.971,141.573,130.161,141.461z M108.649,143.488
			c1.188-0.112,2.061-1.167,1.949-2.357c-0.112-1.188-1.166-2.062-2.354-1.949c-1.188,0.111-2.061,1.166-1.948,2.355
			C106.407,142.726,107.462,143.599,108.649,143.488z M184.95,147.162c1.189-0.112,2.062-1.167,1.949-2.355
			c-0.112-1.19-1.166-2.063-2.353-1.951c-1.188,0.111-2.062,1.167-1.949,2.355C182.708,146.4,183.763,147.274,184.95,147.162z
			 M163.44,149.188c1.187-0.112,2.06-1.166,1.948-2.356c-0.111-1.188-1.166-2.062-2.354-1.95c-1.188,0.111-2.061,1.166-1.948,2.356
			C161.198,148.427,162.251,149.3,163.44,149.188z M120.417,153.242c1.188-0.112,2.06-1.167,1.949-2.356
			c-0.112-1.189-1.166-2.063-2.355-1.95c-1.187,0.111-2.059,1.167-1.948,2.355C118.176,152.48,119.228,153.354,120.417,153.242z
			 M98.906,155.268c1.189-0.112,2.062-1.167,1.949-2.356c-0.112-1.188-1.166-2.063-2.354-1.951c-1.187,0.112-2.06,1.167-1.949,2.356
			C96.664,154.507,97.718,155.38,98.906,155.268z M196.719,156.916c1.188-0.111,2.061-1.167,1.949-2.355
			c-0.112-1.19-1.166-2.063-2.354-1.951c-1.188,0.112-2.061,1.167-1.948,2.355C194.477,156.154,195.531,157.028,196.719,156.916z
			 M175.207,158.942c1.189-0.112,2.061-1.167,1.949-2.356c-0.112-1.188-1.166-2.063-2.353-1.95
			c-1.188,0.111-2.062,1.167-1.949,2.355C172.965,158.181,174.019,159.054,175.207,158.942z M132.185,162.995
			c1.188-0.111,2.061-1.166,1.948-2.355c-0.111-1.189-1.166-2.063-2.353-1.95c-1.188,0.11-2.061,1.166-1.949,2.355
			C129.943,162.234,130.997,163.107,132.185,162.995z M110.674,165.022c1.187-0.112,2.06-1.167,1.948-2.356
			c-0.111-1.188-1.165-2.063-2.354-1.951c-1.188,0.112-2.059,1.167-1.948,2.356C108.431,164.261,109.485,165.134,110.674,165.022z
			 M208.487,166.67c1.187-0.111,2.059-1.167,1.948-2.355c-0.111-1.19-1.165-2.063-2.354-1.951c-1.188,0.112-2.06,1.167-1.948,2.356
			C206.244,165.908,207.298,166.782,208.487,166.67z M89.162,167.049c1.188-0.111,2.06-1.167,1.949-2.355
			c-0.112-1.19-1.166-2.063-2.354-1.951c-1.187,0.112-2.061,1.167-1.949,2.356C86.921,166.287,87.974,167.161,89.162,167.049z
			 M186.975,168.696c1.188-0.112,2.061-1.167,1.949-2.356c-0.112-1.188-1.166-2.063-2.354-1.95c-1.188,0.111-2.06,1.167-1.949,2.356
			C184.733,167.935,185.787,168.808,186.975,168.696z M122.441,174.776c1.189-0.112,2.061-1.167,1.949-2.356
			c-0.111-1.188-1.166-2.063-2.353-1.95c-1.188,0.111-2.062,1.167-1.949,2.355C120.2,174.015,121.254,174.888,122.441,174.776z
			 M220.255,176.424c1.187-0.111,2.06-1.167,1.948-2.355c-0.111-1.19-1.166-2.063-2.353-1.951c-1.189,0.112-2.061,1.167-1.949,2.356
			C218.012,175.662,219.066,176.536,220.255,176.424z M100.931,176.803c1.187-0.112,2.06-1.167,1.949-2.356
			c-0.112-1.19-1.167-2.063-2.354-1.951c-1.189,0.112-2.062,1.167-1.949,2.356C98.689,176.041,99.742,176.915,100.931,176.803z"/>
		<path fill="#DA5046" d="M130.468,138.062c-2.313-0.499-5.494-1.309-6.154-2.564c-0.661-1.256-0.441-3.271-1.223-2.741
			c-4.304,0.677-8.626,1.225-12.98,1.421c-1.159-0.029-2.264,0.036-3.389-0.28c-0.3-0.085-0.564-0.267-0.847-0.399l-0.382-0.555
			l0.003-0.428l0.656-0.231l0.033,0.014l0.017-0.031l0.013-0.005c2.642-1.163,5.273-2.377,7.542-4.207
			c4.486-3.368,5.917-9.136,5.398-15.041c-0.097-0.978-0.204-1.964-0.464-2.912c11.006,1.343,21.948,3.338,32.711,6.01
			l-6.275,23.306C145.126,139.417,138.152,139.716,130.468,138.062z"/>
		<path fill="#DA5046" d="M40.559,68.098c0.622-2.158,3.381-6.771,13.527-6.771c6.765,0,19.013,1.829,33.822,6.336
			c23.674,7.207,47.348,20.75,47.348,20.75l-6.763,20.314H43.94C43.94,108.727,40.559,71.484,40.559,68.098z"/>
		<path fill="#DA5046" d="M254.207,68.098c-0.623-2.158-3.382-6.771-13.528-6.771c-6.764,0-19.011,1.829-33.82,6.336
			c-23.674,7.207-47.349,20.75-47.349,20.75l6.765,20.314h84.551C250.825,108.727,254.207,71.484,254.207,68.098z"/>
		<path fill="#DA5046" d="M164.334,138.062c2.314-0.499,5.494-1.309,6.154-2.564c0.662-1.256,0.441-3.271,1.224-2.741
			c4.305,0.677,8.627,1.225,12.98,1.421c1.159-0.029,2.265,0.036,3.39-0.28c0.299-0.085,0.563-0.267,0.846-0.399l0.382-0.555
			l-0.003-0.428l-0.656-0.231l-0.033,0.014l-0.017-0.031l-0.012-0.005c-2.643-1.163-5.274-2.377-7.542-4.207
			c-4.486-3.368-5.918-9.136-5.398-15.041c0.097-0.978,0.204-1.964,0.463-2.912c-11.005,1.343-21.947,3.338-32.711,6.01
			l6.275,23.306C149.677,139.417,156.65,139.716,164.334,138.062z"/>
		<path fill="#FFA7A9" d="M254.209,68.099c0,3.386-3.585,8.515-10.146,10.157c-5.939,1.486-20.17,0.543-37.203,3.386
			c-20.293,3.386-47.349,13.543-47.349,13.543v27.086c0,0,33.82,16.929,57.495,23.7c23.674,6.771,33.819,0,37.202-6.771
			c1.513-3.029,3.496-16.423,3.295-33.925C257.326,90.007,255.744,72.222,254.209,68.099z"/>
		<path fill="#FFA7A9" d="M40.559,68.099c0,3.386,3.584,8.515,10.146,10.157c5.939,1.486,20.17,0.543,37.203,3.386
			c20.292,3.386,47.348,13.543,47.348,13.543v27.086c0,0-33.819,16.929-57.494,23.7c-23.674,6.771-33.821,0-37.203-6.771
			c-1.512-3.029-3.876-16.349-3.674-33.851C37.061,90.081,39.023,72.222,40.559,68.099z"/>
		<path fill="#FF7066" d="M69.047,147.46c1.193,0,2.161-0.968,2.161-2.163c0-1.194-0.968-2.163-2.161-2.163
			c-1.193,0-2.161,0.969-2.161,2.163C66.885,146.492,67.853,147.46,69.047,147.46z M101.456,136.645
			c1.193,0,2.161-0.968,2.161-2.163s-0.968-2.163-2.161-2.163c-1.193,0-2.161,0.968-2.161,2.163S100.262,136.645,101.456,136.645z
			 M79.849,136.645c1.194,0,2.161-0.968,2.161-2.163s-0.967-2.163-2.161-2.163c-1.193,0-2.161,0.968-2.161,2.163
			S78.656,136.645,79.849,136.645z M58.243,136.645c1.194,0,2.161-0.968,2.161-2.163s-0.967-2.163-2.161-2.163
			c-1.193,0-2.161,0.968-2.161,2.163S57.05,136.645,58.243,136.645z M69.047,125.83c1.193,0,2.161-0.968,2.161-2.163
			c0-1.193-0.968-2.163-2.161-2.163c-1.193,0-2.161,0.97-2.161,2.163C66.885,124.862,67.853,125.83,69.047,125.83z M90.653,125.83
			c1.193,0,2.161-0.968,2.161-2.163c0-1.193-0.968-2.163-2.161-2.163c-1.194,0-2.161,0.97-2.161,2.163
			C88.492,124.862,89.459,125.83,90.653,125.83z M47.44,125.83c1.193,0,2.16-0.968,2.16-2.163c0-1.193-0.967-2.163-2.16-2.163
			c-1.193,0-2.161,0.97-2.161,2.163C45.279,124.862,46.247,125.83,47.44,125.83z M112.26,125.83c1.193,0,2.161-0.968,2.161-2.163
			c0-1.193-0.968-2.163-2.161-2.163c-1.194,0-2.161,0.97-2.161,2.163C110.098,124.862,111.065,125.83,112.26,125.83z
			 M123.062,115.015c1.193,0,2.16-0.969,2.16-2.163s-0.967-2.163-2.16-2.163c-1.193,0-2.16,0.969-2.16,2.163
			S121.869,115.015,123.062,115.015z M58.243,115.015c1.194,0,2.161-0.969,2.161-2.163s-0.967-2.163-2.161-2.163
			c-1.193,0-2.161,0.969-2.161,2.163S57.05,115.015,58.243,115.015z M101.456,115.015c1.193,0,2.161-0.969,2.161-2.163
			s-0.968-2.163-2.161-2.163c-1.193,0-2.161,0.969-2.161,2.163S100.262,115.015,101.456,115.015z M79.849,115.015
			c1.194,0,2.161-0.969,2.161-2.163s-0.967-2.163-2.161-2.163c-1.193,0-2.161,0.969-2.161,2.163S78.656,115.015,79.849,115.015z
			 M47.44,104.201c1.193,0,2.16-0.969,2.16-2.163s-0.967-2.163-2.16-2.163c-1.193,0-2.161,0.969-2.161,2.163
			S46.247,104.201,47.44,104.201z M69.047,104.201c1.193,0,2.161-0.969,2.161-2.163s-0.968-2.163-2.161-2.163
			c-1.193,0-2.161,0.969-2.161,2.163S67.853,104.201,69.047,104.201z M112.26,104.201c1.193,0,2.161-0.969,2.161-2.163
			s-0.968-2.163-2.161-2.163c-1.194,0-2.161,0.969-2.161,2.163S111.065,104.201,112.26,104.201z M90.653,104.201
			c1.193,0,2.161-0.969,2.161-2.163s-0.968-2.163-2.161-2.163c-1.194,0-2.161,0.969-2.161,2.163S89.459,104.201,90.653,104.201z
			 M58.243,93.386c1.194,0,2.161-0.97,2.161-2.163c0-1.195-0.967-2.163-2.161-2.163c-1.193,0-2.161,0.968-2.161,2.163
			C56.082,92.417,57.05,93.386,58.243,93.386z M79.849,93.386c1.194,0,2.161-0.97,2.161-2.163c0-1.195-0.967-2.163-2.161-2.163
			c-1.193,0-2.161,0.968-2.161,2.163C77.688,92.417,78.656,93.386,79.849,93.386z M101.456,93.386c1.193,0,2.161-0.97,2.161-2.163
			c0-1.195-0.968-2.163-2.161-2.163c-1.193,0-2.161,0.968-2.161,2.163C99.295,92.417,100.262,93.386,101.456,93.386z
			 M60.847,148.772c-4.074,0.104-8.067-0.536-11.854-2.027c0.454-0.346,0.553-0.918,0.606-1.448c0-1.194-0.967-2.163-2.16-2.163
			c-1.086,0.02-1.679,0.685-2.068,1.611c-5.707-3.758-6.086-9.463-6.889-15.67c-0.607-4.709-0.963-9.43-1.263-14.166
			c1.678-0.547,2.195-2.798,0.625-3.85c-0.232-0.156-0.515-0.218-0.772-0.326l-0.037-0.003c-0.288-5.818-0.131-11.644,0.195-17.455
			c1.865-0.602,2.148-3.2,0.261-3.995c0.324-4.62,0.835-9.226,1.511-13.807c0.362-2.457,0.75-5.013,1.558-7.374
			c0,3.386,3.584,8.515,10.146,10.156c5.396,1.014,10.936,1.021,16.405,1.284c-0.238,0.566-0.166,0.276-0.226,0.868
			c0,1.194,0.968,2.163,2.161,2.163c1.193,0,2.161-0.969,2.161-2.163c-0.052-0.505,0.013-0.302-0.124-0.627
			c6.035,0.357,12.054,1.025,18.01,2.069c0.68,0.79,1.589,0.848,2.478,0.474c9.955,1.922,19.677,4.86,29.335,7.909l0.239,0.078
			c-0.257,0.609-0.183,0.305-0.243,0.912c0,1.193,0.967,2.163,2.16,2.163c1.159-0.022,1.707-0.756,2.117-1.728l0.001-0.014
			c3.376,1.131,6.739,2.303,10.078,3.54v5.244c-0.334-0.426-0.892-0.505-1.393-0.555c-1.193,0-2.161,0.969-2.161,2.163
			s0.968,2.163,2.161,2.163c0.521-0.003,1.023-0.185,1.393-0.555v18.413c-0.334-0.425-0.892-0.504-1.393-0.556
			c-1.193,0-2.161,0.97-2.161,2.163l0.033,0.327c-13.054,6.287-26.305,12.189-39.877,17.275c-6.634,2.486-13.446,4.827-20.404,6.26
			c-3.37,0.695-4.025,0.699-7.358,1.083L60.847,148.772z M47.44,82.571c1.193,0,2.16-0.969,2.16-2.163
			c0-1.195-0.967-2.163-2.16-2.163c-1.193,0-2.161,0.968-2.161,2.163C45.279,81.602,46.247,82.571,47.44,82.571z"/>
		<path fill="#FF7066" d="M233.491,140.731c1.192,0,2.159-0.968,2.159-2.163c0-1.194-0.967-2.163-2.159-2.163
			c-1.193,0-2.16,0.969-2.16,2.163C231.331,139.763,232.298,140.731,233.491,140.731z M211.885,140.731
			c1.193,0,2.161-0.968,2.161-2.163c0-1.194-0.968-2.163-2.161-2.163s-2.16,0.969-2.16,2.163
			C209.725,139.763,210.692,140.731,211.885,140.731z M244.294,129.916c1.193,0,2.16-0.968,2.16-2.163
			c0-1.193-0.967-2.163-2.16-2.163s-2.161,0.97-2.161,2.163C242.133,128.948,243.101,129.916,244.294,129.916z M179.475,129.916
			c1.193,0,2.161-0.968,2.161-2.163c0-1.193-0.967-2.163-2.161-2.163c-1.193,0-2.161,0.97-2.161,2.163
			C177.315,128.948,178.282,129.916,179.475,129.916z M201.082,129.916c1.193,0,2.161-0.968,2.161-2.163
			c0-1.193-0.967-2.163-2.161-2.163c-1.194,0-2.161,0.97-2.161,2.163C198.921,128.948,199.888,129.916,201.082,129.916z
			 M222.688,129.916c1.193,0,2.161-0.968,2.161-2.163c0-1.193-0.968-2.163-2.161-2.163c-1.194,0-2.161,0.97-2.161,2.163
			C220.528,128.948,221.494,129.916,222.688,129.916z M168.672,119.101c1.194,0,2.161-0.969,2.161-2.163s-0.966-2.162-2.161-2.162
			c-1.192,0-2.161,0.968-2.161,2.162S167.48,119.101,168.672,119.101z M190.278,119.101c1.194,0,2.161-0.969,2.161-2.163
			s-0.967-2.162-2.161-2.162c-1.193,0-2.161,0.968-2.161,2.162S189.085,119.101,190.278,119.101z M255.098,119.101
			c1.192,0,2.16-0.969,2.16-2.163s-0.968-2.162-2.16-2.162c-1.193,0-2.161,0.968-2.161,2.162S253.905,119.101,255.098,119.101z
			 M233.491,119.101c1.192,0,2.159-0.969,2.159-2.163s-0.967-2.162-2.159-2.162c-1.193,0-2.16,0.968-2.16,2.162
			S232.298,119.101,233.491,119.101z M211.885,119.101c1.193,0,2.161-0.969,2.161-2.163s-0.968-2.162-2.161-2.162
			s-2.16,0.968-2.16,2.162S210.692,119.101,211.885,119.101z M201.082,108.287c1.193,0,2.161-0.969,2.161-2.163
			s-0.967-2.163-2.161-2.163c-1.194,0-2.161,0.969-2.161,2.163S199.888,108.287,201.082,108.287z M179.475,108.287
			c1.193,0,2.161-0.969,2.161-2.163s-0.967-2.163-2.161-2.163c-1.193,0-2.161,0.969-2.161,2.163S178.282,108.287,179.475,108.287z
			 M244.294,108.287c1.193,0,2.16-0.969,2.16-2.163s-0.967-2.163-2.16-2.163s-2.161,0.969-2.161,2.163
			S243.101,108.287,244.294,108.287z M222.688,108.287c1.193,0,2.161-0.969,2.161-2.163s-0.968-2.163-2.161-2.163
			c-1.194,0-2.161,0.969-2.161,2.163S221.494,108.287,222.688,108.287z M233.491,97.472c1.192,0,2.159-0.97,2.159-2.163
			c0-1.195-0.967-2.163-2.159-2.163c-1.193,0-2.16,0.968-2.16,2.163C231.331,96.503,232.298,97.472,233.491,97.472z M168.672,97.472
			c1.194,0,2.161-0.97,2.161-2.163c0-1.195-0.966-2.163-2.161-2.163c-1.192,0-2.161,0.968-2.161,2.163
			C166.511,96.503,167.48,97.472,168.672,97.472z M190.278,97.472c1.194,0,2.161-0.97,2.161-2.163c0-1.195-0.967-2.163-2.161-2.163
			c-1.193,0-2.161,0.968-2.161,2.163C188.117,96.503,189.085,97.472,190.278,97.472z M211.885,97.472
			c1.193,0,2.161-0.97,2.161-2.163c0-1.195-0.968-2.163-2.161-2.163s-2.16,0.968-2.16,2.163
			C209.725,96.503,210.692,97.472,211.885,97.472z M244.294,86.657c1.193,0,2.16-0.968,2.16-2.163c0-1.194-0.967-2.163-2.16-2.163
			s-2.161,0.969-2.161,2.163C242.133,85.689,243.101,86.657,244.294,86.657z M222.688,86.657c1.193,0,2.161-0.968,2.161-2.163
			c0-1.194-0.968-2.163-2.161-2.163c-1.194,0-2.161,0.969-2.161,2.163C220.528,85.689,221.494,86.657,222.688,86.657z
			 M233.924,148.774c-3.365,0.01-6.675-0.548-9.975-1.13l-0.054-0.055c-0.907-0.383-0.494-0.298-1.208-0.369l-0.435,0.044
			l-0.03,0.013c-3.768-0.879-2.033-0.436-5.214-1.304c-23.675-6.771-57.496-23.7-57.496-23.7v-14.792
			c0.693-0.694,0.693-2.021,0-2.714v-9.58c13.066-4.797,26.377-8.951,39.946-12.07c-0.416,0.332-0.489,0.886-0.538,1.377
			c0,1.195,0.967,2.163,2.161,2.163c1.193,0,2.161-0.968,2.161-2.163c-0.028-0.853-0.475-1.592-1.267-1.926
			c3.604-0.713,1.974-0.413,4.886-0.924c17.033-2.842,31.264-1.899,37.204-3.385c6.562-1.644,10.146-6.772,10.146-10.158
			c0.389,1.108,0.612,2.268,0.813,3.423c-1.234,0.059-1.97,0.993-2.087,2.155c0,1.194,0.968,2.162,2.161,2.162
			c0.477-0.048,0.3,0.014,0.553-0.093c0.805,6.319,1.205,12.681,1.528,19.039c-0.302-1.023-1.051-1.538-2.081-1.642
			c-1.193,0-2.161,0.968-2.161,2.163c0,1.193,0.968,2.163,2.161,2.163c1.002-0.051,2.016-0.736,2.125-1.813
			c0.543,13.587,0.584,27.367-2.12,40.747l-0.005-0.001c-1.193,0-2.161,0.969-2.161,2.163c-0.019,0.651,0.303,1.143,0.739,1.581
			c-1.972,3.564-5.499,5.651-9.157,7.094l-0.225-0.022c-0.145,0.015-0.296,0.001-0.436,0.044c-0.794-0.649-0.58,0.33-0.894,0.445
			c-1.906,0.708-4.068,0.792-6.063,0.996L233.924,148.774z"/>
		<path fill="#DA5046" d="M122.66,121.485c-1.012-11.223,1.218-26,4.978-33.006c3.762-7.006,7.631-3.588,8.643,7.634
			c1.012,11.223-1.217,26-4.979,33.006C127.542,136.125,123.672,132.707,122.66,121.485z"/>
		<path fill="#DA5046" d="M171.993,121.596c1.012-11.224-1.217-26-4.979-33.007c-3.761-7.006-7.63-3.588-8.642,7.635
			c-1.013,11.223,1.217,26,4.978,33.006C167.112,136.236,170.982,132.818,171.993,121.596z"/>
		<path fill="#FFA7A9" d="M131.747,83.505c3.579-2.973,28.923-2.086,32.388,0.352c3.465,2.436,5.911,47.287,1.201,50.313
			c-4.057,2.607-30.865,2.178-36.245,0C123.712,131.993,128.169,86.478,131.747,83.505z"/>
		<path fill="#FF7066" d="M159.678,133.833c1.193,0,2.161-0.968,2.161-2.163c0-1.194-0.968-2.163-2.161-2.163
			c-1.194,0-2.161,0.969-2.161,2.163C157.518,132.865,158.485,133.833,159.678,133.833z M138.072,133.833
			c1.193,0,2.161-0.968,2.161-2.163c0-1.194-0.968-2.163-2.161-2.163c-1.194,0-2.161,0.969-2.161,2.163
			C135.911,132.865,136.878,133.833,138.072,133.833z M148.876,123.018c1.192,0,2.161-0.969,2.161-2.163s-0.968-2.163-2.161-2.163
			c-1.194,0-2.161,0.969-2.161,2.163S147.682,123.018,148.876,123.018z M150.635,136.074c-5.877-0.015-11.803-0.046-17.633-0.898
			c-1.121-0.163-3.815-0.396-4.615-1.47c-0.667-0.896-0.966-2.234-1.149-3.284c-0.436-2.491-0.582-5.012-0.616-7.536
			c0.347,0.146,0.135,0.081,0.647,0.133c1.194,0,2.161-0.969,2.161-2.163s-0.966-2.163-2.161-2.163
			c-0.514,0.052-0.3-0.012-0.655,0.137c0.054-5.864,0.551-11.713,1.213-17.536c1.912-0.636,2.184-3.215,0.477-3.934
			c0.45-3.203,0.933-6.414,1.731-9.553c0.259-1.021,0.794-3.357,1.701-4.183c1.342-1.219,5.511-1.507,7.213-1.644
			c3.897-0.313,7.817-0.271,11.719-0.12c3.455,0.134,7,0.395,10.395,1.095c0.698,0.145,2.696,0.492,3.223,1.165
			c0.796,1.019,1.102,2.599,1.365,3.782c0.432,1.96,0.776,4.353,1.019,6.32c1.039,8.461,1.369,17.021,1.225,25.541
			c-0.037,2.184-0.201,5.214-0.442,7.417c-0.212,1.928-0.519,5.367-1.913,6.936c-0.663,0.746-2.772,1.035-3.615,1.177
			c-2.334,0.395-4.696,0.519-7.055,0.66L150.635,136.074z M159.678,90.574c1.193,0,2.161-0.969,2.161-2.163
			c0-1.195-0.968-2.163-2.161-2.163c-1.194,0-2.161,0.968-2.161,2.163C157.518,89.605,158.485,90.574,159.678,90.574z
			 M138.072,90.574c1.193,0,2.161-0.969,2.161-2.163c0-1.195-0.968-2.163-2.161-2.163c-1.194,0-2.161,0.968-2.161,2.163
			C135.911,89.605,136.878,90.574,138.072,90.574z M148.876,101.388c1.192,0,2.161-0.969,2.161-2.163s-0.968-2.163-2.161-2.163
			c-1.194,0-2.161,0.969-2.161,2.163S147.682,101.388,148.876,101.388z M138.072,112.203c1.193,0,2.161-0.968,2.161-2.163
			c0-1.193-0.968-2.163-2.161-2.163c-1.194,0-2.161,0.97-2.161,2.163C135.911,111.235,136.878,112.203,138.072,112.203z
			 M159.678,112.203c1.193,0,2.161-0.968,2.161-2.163c0-1.193-0.968-2.163-2.161-2.163c-1.194,0-2.161,0.97-2.161,2.163
			C157.518,111.235,158.485,112.203,159.678,112.203z"/>
	</g>
</g>
</svg>
