<?xml version="1.0" encoding="utf-8"?>
<!-- Generator: Adobe Illustrator 16.0.0, SVG Export Plug-In . SVG Version: 6.00 Build 0)  -->
<!DOCTYPE svg PUBLIC "-//W3C//DTD SVG 1.1 Basic//EN" "http://www.w3.org/Graphics/SVG/1.1/DTD/svg11-basic.dtd">
<svg version="1.1" baseProfile="basic" id="Layer_1"
	 xmlns="http://www.w3.org/2000/svg" xmlns:xlink="http://www.w3.org/1999/xlink" x="0px" y="0px" width="36px" height="39.929px"
	 viewBox="0 0 36 39.929" xml:space="preserve">
<path opacity="0.2" d="M17.996,3.929C8.057,3.929,0,11.986,0,21.919c0,9.939,8.057,17.997,17.996,17.997
	c9.939,0,17.997-8.058,17.997-17.997C35.993,11.986,27.936,3.929,17.996,3.929z M16.179,31.472l-8.314-8.315l5.297-5.297
	l3.017,3.018l8.314-8.31l5.297,5.292L16.179,31.472z"/>
<path fill="#FFFFFF" d="M17.996,0C8.057,0,0,8.057,0,17.996c0,9.939,8.057,17.996,17.996,17.996c9.939,0,17.997-8.057,17.997-17.996
	C35.993,8.057,27.936,0,17.996,0z M16.179,27.549l-8.314-8.316l5.297-5.297l3.017,3.017l8.314-8.316l5.297,5.298L16.179,27.549z"/>
</svg>
